<svg height="511pt" viewBox="0 -2 511.99937 511" width="511pt" xmlns="http://www.w3.org/2000/svg"><path d="m430.292969 262.890625c-24.867188-5.949219-47.410157-13.996094-67.988281-29.886719-33.109376-25.566406-51.960938-63.824218-58.054688-104.730468-3.933594-26.402344-.246094-48.917969-18.472656-71.203126-23.542969-28.777343-68.386719-38.183593-99.632813-15.929687-41.789062 29.761719-34.054687 93.957031-26.128906 137.339844 11.734375 64.210937 43.953125 123.652343 96.035156 163.925781 21.453125 16.585938 44.757813 30.839844 69.457031 42.0625 28.382813 12.894531 60.542969 26.140625 92.300782 24.089844 40.742187-2.632813 71.632812-37.792969 69.003906-78.535156-2.097656-32.472657-25.855469-59.792969-56.519531-67.132813zm0 0" fill="#ffc265"/><path d="m159.851562 191.960938c12.058594 14.5625 30.335938 24.273437 49.597657 25.617187 4.144531.289063 6.765625 4.566406 5.15625 8.398437-9.902344 23.570313-6.691407 51.703126 10.738281 72.765626 17.429688 21.058593 44.46875 29.476562 69.472656 24.15625 4.066406-.867188 7.777344 2.507812 7.285156 6.636718-2.214843 18.597656 2.890626 38.035156 15.777344 53.605469.625.753906 1.261719 1.492187 1.910156 2.214844 19.476563 21.683593 51.8125 26.242187 77.054688 12.054687 11.058594-6.214844 20.085938-15.675781 25.433594-27.214844 18.417968-39.761718-9.996094-81.40625-50.421875-92.34375-9.46875-2.5625-19.714844-1.542968-21.585938-12.5625-1.671875-9.824218 1-19.671874-1.660156-29.816406-2.605469-9.949218-7.410156-19.265625-13.964844-27.183594-7.777343-9.394531-17.925781-16.699218-29.320312-21.039062-14.296875-5.445312-23.988281-8.929688-22.664063-25.730469 1.246094-15.839843-4.542968-31.246093-14.011718-43.761719-36.363282-48.066406-118.164063-34.527343-123.058594 30.996094-1.226563 16.347656 4.464844 31.378906 14.261718 43.207032zm0 0" fill="#ffb541"/><path d="m170.195312 200.585938c10.148438 12.257812 25.53125 20.429687 41.746094 21.5625 3.488282.242187 5.695313 3.84375 4.339844 7.070312-8.335938 19.835938-5.632812 43.515625 9.035156 61.242188 14.671875 17.726562 37.429688 24.808593 58.472656 20.328124 3.425782-.726562 6.546876 2.113282 6.132813 5.585938-1.863281 15.65625 2.433594 32.015625 13.277344 45.121094.527343.632812 1.0625 1.253906 1.609375 1.863281 16.394531 18.25 43.609375 22.085937 64.851562 10.148437 9.3125-5.230468 16.90625-13.195312 21.40625-22.90625 15.503906-33.464843-8.410156-68.519531-42.433594-77.722656-7.972656-2.15625-16.597656-1.300781-18.171874-10.574218-1.40625-8.269532.84375-16.558594-1.394532-25.097657-2.195312-8.371093-6.238281-16.210937-11.753906-22.878906-6.542969-7.902344-15.085938-14.050781-24.679688-17.707031-12.03125-4.582032-20.1875-7.515625-19.074218-21.652344 1.050781-13.332031-3.820313-26.300781-11.792969-36.835938-30.605469-40.453124-99.453125-29.058593-103.574219 26.089844-1.03125 13.757813 3.757813 26.410156 12.003906 36.363282zm0 0" fill="#00b965"/><path d="m500.253906 355.410156c-4.726562-5.738281-11.136718-10.402344-19.726562-14.269531-18.324219-8.257813-39.136719-7.1875-58.542969-10.789063-10.804687-2.007812-21.503906-4.570312-32.046875-7.675781-20.667969-6.085937-40.714844-14.25-59.789062-24.28125-26.746094-14.058593-48.445313-29.09375-65.078126-54.679687-9.777343-15.046875-17.175781-31.570313-23.1875-48.457032-13.746093-38.585937-17.472656-83.789062-13.929687-124.347656 1.625-18.554687.519531-36.730468-12.722656-51.113281-19.351563-21.011719-52.152344-26.414063-75.21875-8.425781-5.816407 4.535156-10.558594 10.292968-14.269531 16.65625-7.464844 12.800781-10.773438 27.761718-12.132813 42.398437-1.273437 13.699219-2.054687 27.445313-2.351563 41.203125-.152343 6.878906.035157 13.761719-.089843 20.636719-.640625 35.582031 6 72.617187 17.367187 106.460937 7.40625 22.054688 18.152344 42.894532 31.257813 62.074219 6.554687 9.589844 13.695312 18.773438 21.316406 27.539063 13.445313 15.46875 27.84375 30.152344 43.476563 43.40625 7.679687 6.511718 15.65625 12.675781 23.953124 18.375 4.316407 2.964844 8.714844 5.804687 13.203126 8.503906 30.835937 18.589844 66.277343 31.574219 101.898437 38.929688 22.566406 4.660156 45.410156 7.984374 68.371094 9.925781 27.941406 2.359375 58.480469-2.660157 73.390625-29.363281 10.332031-18.503907 8.460937-46.199219-5.148438-62.707032zm0 0" fill="#ea4444"/><path d="m505.40625 418.121094c-14.910156 26.699218-45.449219 31.722656-73.394531 29.359375-22.957031-1.949219-45.800781-5.269531-68.367188-9.929688-35.621093-7.351562-71.066406-20.335937-101.902343-38.921875-4.484376-2.699218-8.886719-5.546875-13.199219-8.507812-8.300781-5.703125-16.273438-11.871094-23.957031-18.378906-15.632813-13.25-30.03125-27.9375-43.476563-43.40625-7.613281-8.765626-14.757813-17.941407-21.320313-27.535157-13.105468-19.179687-23.839843-40.023437-31.257812-62.082031-11.363281-33.835938-18.003906-70.871094-17.367188-106.460938.125-6.867187-.058593-13.746093.09375-20.625.300782-13.757812 1.085938-27.503906 2.351563-41.210937 1.363281-14.632813 4.671875-29.597656 12.136719-42.394531 3.703125-6.363282 8.449218-12.121094 14.265625-16.65625 20.6875-16.140625 49.191406-13.457032 68.816406 2.433594-12.984375-2.445313-26.699219.132812-37.867187 8.847656-5.210938 4.054687-9.449219 9.199218-12.769532 14.894531-6.671875 11.445313-9.640625 24.832031-10.847656 37.929687-1.144531 12.25-1.835938 24.542969-2.105469 36.847657-.132812 6.15625.03125 12.3125-.082031 18.460937-.578125 31.824219 5.363281 64.960938 15.53125 95.226563 6.632812 19.730469 16.242188 38.363281 27.957031 55.527343 5.871094 8.578126 12.253907 16.789063 19.070313 24.625 12.023437 13.839844 24.90625 26.96875 38.890625 38.828126 6.867187 5.828124 14.003906 11.34375 21.429687 16.441406 3.855469 2.648437 7.785156 5.183594 11.808594 7.609375 27.578125 16.625 59.277344 28.238281 91.144531 34.816406 20.183594 4.164063 40.613281 7.148437 61.15625 8.878906 24.996094 2.113281 52.304688-2.382812 65.640625-26.265625 4.257813-7.632812 6.199219-17.007812 5.859375-26.351562 10.457031 16.707031 11.15625 41.160156 1.761719 58zm0 0" fill="#d93131"/><path d="m98.789062 241.375c10.152344 12.253906 25.535157 20.429688 41.746094 21.5625 3.488282.242188 5.695313 3.839844 4.339844 7.066406-8.335938 19.839844-5.632812 43.519532 9.039062 61.242188 14.667969 17.726562 37.425782 24.8125 58.472657 20.332031 3.421875-.726563 6.542969 2.113281 6.128906 5.585937-1.863281 15.65625 2.433594 32.011719 13.28125 45.117188.523437.636719 1.058594 1.257812 1.605469 1.863281 16.394531 18.253907 43.609375 22.089844 64.855468 10.152344 9.308594-5.234375 16.902344-13.195313 21.40625-22.90625 15.5-33.46875-8.410156-68.519531-42.4375-77.722656-7.972656-2.15625-16.59375-1.300781-18.171874-10.574219-1.40625-8.269531.84375-16.558594-1.394532-25.097656-2.191406-8.375-6.238281-16.210938-11.753906-22.878906-6.542969-7.90625-15.085938-14.054688-24.675781-17.707032-12.03125-4.585937-20.191407-7.515625-19.078125-21.65625 1.050781-13.332031-3.820313-26.300781-11.792969-36.832031-30.601563-40.457031-99.453125-29.058594-103.574219 26.089844-1.027344 13.753906 3.761719 26.40625 12.003906 36.363281zm0 0" fill="#00b965"/><path d="m298.160156 346.546875c-27.148437-7.902344-51.628906-18-73.511718-36.65625-35.207032-30.015625-53.988282-73.292969-58.53125-118.808594-2.933594-29.378906 2.34375-54.058593-16.601563-79.648437-24.46875-33.054688-73.503906-45.84375-109.214844-22.933594-47.761719 30.644531-42.652343 101.980469-36.214843 150.332031 9.527343 71.570313 41.941406 138.957031 97.328124 186.238281 22.8125 19.472657 47.796876 36.464844 74.480469 50.1875 30.664063 15.761719 65.488281 32.117188 100.683594 31.550782 45.148437-.730469 81.160156-37.921875 80.433594-83.070313-.582031-35.992187-25.363281-67.445312-58.851563-77.191406zm0 0" fill="#ffc265"/><path d="m357.015625 423.730469c.722656 45.160156-35.292969 82.347656-80.441406 83.070312-35.199219.566407-70.011719-15.777343-100.671875-31.546875-26.691406-13.714844-51.679688-30.710937-74.492188-50.183594-55.378906-47.285156-87.792968-114.667968-97.320312-186.238281-6.4375-48.347656-11.550782-119.683593 36.207031-150.332031 35.714844-22.914062 84.75-10.117188 109.222656 22.9375.167969.226562.332031.441406.488281.667969-22.824218-17.757813-55.816406-22.160157-81.101562-5.941407-41.449219 26.597657-37.015625 88.496094-31.425781 130.460938 8.273437 62.113281 36.394531 120.597656 84.464843 161.621094 19.800782 16.90625 41.476563 31.652344 64.640626 43.554687 26.605468 13.683594 56.824218 27.875 87.371093 27.378907 39.179688-.628907 70.4375-32.90625 69.808594-72.085938-.125-7.601562-1.484375-14.964844-3.910156-21.886719 10.496093 13.59375 16.859375 30.496094 17.160156 48.523438zm0 0" fill="#ffb541"/></svg>