<?xml version="1.0" encoding="iso-8859-1"?>
<!-- Generator: Adobe Illustrator 19.0.0, SVG Export Plug-In . SVG Version: 6.00 Build 0)  -->
<svg version="1.1" id="Layer_1" xmlns="http://www.w3.org/2000/svg" xmlns:xlink="http://www.w3.org/1999/xlink" x="0px" y="0px"
	 viewBox="0 0 511.999 511.999" style="enable-background:new 0 0 511.999 511.999;" xml:space="preserve">
<path style="fill:#2AB573;" d="M299.862,142.903c0-24.889-20.176-45.065-45.065-45.065c-7.405,0-14.385,1.797-20.548,4.962
	c-9.453-21.038-30.577-35.699-55.136-35.699c-24.659,0-45.852,14.777-55.251,35.95c-6.282-3.324-13.439-5.213-21.041-5.213
	c-24.889,0-45.065,20.176-45.065,45.065"/>
<path style="fill:#1F9E5E;" d="M262.932,160.295c0-17.297-14.021-31.318-31.318-31.318c-5.146,0-9.996,1.249-14.28,3.447
	c-6.57-14.62-21.248-24.808-38.316-24.808c-17.137,0-31.864,10.269-38.395,24.983c-4.365-2.31-9.339-3.623-14.622-3.623
	c-17.297,0-31.318,14.021-31.318,31.318h168.249V160.295z"/>
<path style="fill:#B3B3B3;" d="M489.031,151.31H23.54c-8.252,0-14.832,6.946-14.333,15.182c2.898,47.881,19.411,92.085,45.716,128.8
	c29.873,41.695,46.557,91.385,46.557,142.677v1.171c0,9.304,7.542,16.846,16.846,16.846h25.348c7.355,0,13.86-4.772,16.069-11.788
	l18.258-57.997c24.607,8.197,50.925,12.647,78.285,12.647s53.679-4.45,78.285-12.647l18.258,57.996
	c2.208,7.016,8.714,11.788,16.069,11.788h25.348c9.304,0,16.846-7.542,16.846-16.846v-1.171c0-51.292,16.683-100.982,46.557-142.677
	c26.305-36.714,42.819-80.918,45.716-128.8C503.864,158.255,497.283,151.31,489.031,151.31z"/>
<path style="fill:#999999;" d="M489.031,151.31h-39.495c6.851,0,12.316,6.946,11.902,15.182
	c-2.406,47.881-16.118,92.085-37.959,128.8c-24.805,41.695-38.656,91.385-38.656,142.677v1.171c0,9.304-6.263,16.846-13.988,16.846
	h23.41c9.304,0,16.846-7.542,16.846-16.846v-1.171c0-51.292,16.683-100.982,46.557-142.677
	c26.305-36.714,42.819-80.918,45.717-128.8C503.864,158.255,497.283,151.31,489.031,151.31z"/>
<path style="fill:#B2741C;" d="M414.185,151.312l20.072-40.619c9.356-18.934,1.592-41.869-17.343-51.225l0,0
	c-18.936-9.356-41.87-1.59-51.225,17.345l-36.806,74.498"/>
<path d="M505.691,150.001c-4.38-4.654-10.556-7.322-16.944-7.322h-60.53l13.728-27.783c5.577-11.288,6.426-24.072,2.39-35.997
	c-4.037-11.926-12.477-21.565-23.766-27.142c-11.289-5.577-24.072-6.425-35.997-2.387s-21.565,12.478-27.142,23.767l-20.969,42.443
	c-2.175,4.404-0.37,9.738,4.034,11.914c4.407,2.179,9.74,0.37,11.915-4.034l20.968-42.443c3.474-7.029,9.474-12.284,16.899-14.798
	c7.425-2.513,15.384-1.986,22.411,1.487c7.028,3.472,12.281,9.473,14.797,16.898c2.513,7.425,1.985,15.384-1.487,22.411
	l-17.622,35.663h-99.918c-0.264-29.528-24.358-53.472-53.946-53.472c-5.577,0-11.149,0.88-16.455,2.576
	c-12.471-20.478-34.886-33.312-59.231-33.312c-24.441,0-46.884,12.892-59.33,33.474c-5.453-1.803-11.196-2.737-16.96-2.737
	c-29.59,0-53.683,23.942-53.947,53.472H23.254c-6.389,0-12.565,2.668-16.944,7.322c-4.368,4.639-6.652,10.942-6.268,17.293
	c2.913,48.116,19.291,94.259,47.364,133.443c29.369,40.99,44.892,88.536,44.892,137.497v1.171c0,14.193,11.547,25.74,25.74,25.74
	h25.348c11.295,0,21.162-7.239,24.553-18.012l15.591-49.524c23.459,6.902,47.795,10.397,72.468,10.397s49.009-3.495,72.469-10.397
	l15.59,49.523c3.392,10.773,13.259,18.012,24.553,18.012h25.348c14.193,0,25.74-11.547,25.74-25.74v-1.171
	c0-7.704,0.398-15.508,1.182-23.199c0.499-4.887-3.059-9.253-7.944-9.752c-4.885-0.493-9.254,3.06-9.752,7.946
	c-0.847,8.288-1.275,16.701-1.275,25.005v1.171c0,4.384-3.567,7.952-7.952,7.952h-25.348c-3.489,0-6.538-2.235-7.585-5.564
	l-18.258-57.996c-0.716-2.273-2.316-4.166-4.439-5.25c-2.123-1.085-4.595-1.27-6.856-0.517c-24.283,8.089-49.676,12.19-75.474,12.19
	s-51.193-4.101-75.474-12.191c-2.263-0.753-4.732-0.568-6.856,0.517c-2.124,1.085-3.724,2.977-4.439,5.251l-18.258,57.997
	c-1.047,3.328-4.096,5.563-7.585,5.563h-25.347c-4.384,0-7.952-3.567-7.952-7.952v-1.171c0-52.699-16.675-103.827-48.221-147.857
	c-26.12-36.456-41.359-79.389-44.069-124.157c-0.122-2.02,0.865-3.388,1.463-4.025c0.606-0.644,1.932-1.726,3.992-1.726h135.616
	c4.912,0,8.894-3.982,8.894-8.894c0-4.912-3.982-8.894-8.894-8.894H66.378c0.263-19.719,16.378-35.683,36.159-35.683
	c5.957,0,11.637,1.406,16.88,4.182c2.18,1.153,4.74,1.35,7.069,0.543s4.221-2.544,5.22-4.797
	c8.268-18.628,26.764-30.664,47.12-30.664c20.254,0,38.712,11.952,47.024,30.45c1,2.225,2.869,3.941,5.171,4.748
	c2.301,0.806,4.834,0.633,7.004-0.481c5.143-2.641,10.69-3.979,16.485-3.979c19.781,0,35.894,15.962,36.157,35.683h-89.106
	c-4.912,0-8.894,3.982-8.894,8.894c0,4.912,3.982,8.894,8.894,8.894h287.184c2.059,0,3.385,1.082,3.992,1.726
	c0.599,0.637,1.586,2.005,1.463,4.025c-2.71,44.77-17.949,87.702-44.069,124.157c-17.903,24.986-31.075,52.418-39.151,81.532
	c-0.066,0.238-0.122,0.479-0.168,0.721l-2.067,10.913c-0.914,4.827,2.257,9.48,7.085,10.395c0.56,0.106,1.115,0.157,1.665,0.157
	c4.189,0,7.921-2.973,8.728-7.24l1.998-10.545c7.525-26.965,19.759-52.388,36.37-75.571c28.073-39.182,44.452-85.326,47.364-133.443
	C512.343,160.944,510.058,154.64,505.691,150.001z"/>
<circle cx="439.146" cy="203.943" r="8.894"/>
<circle cx="451.977" cy="247.157" r="8.894"/>
<circle cx="118.912" cy="297.891" r="8.894"/>
<circle cx="89.015" cy="304.627" r="8.894"/>
<circle cx="108.239" cy="337.465" r="8.894"/>
<circle cx="412.415" cy="257.653" r="8.894"/>
<g>
</g>
<g>
</g>
<g>
</g>
<g>
</g>
<g>
</g>
<g>
</g>
<g>
</g>
<g>
</g>
<g>
</g>
<g>
</g>
<g>
</g>
<g>
</g>
<g>
</g>
<g>
</g>
<g>
</g>
</svg>
