<?xml version="1.0" encoding="iso-8859-1"?>
<!-- Generator: Adobe Illustrator 19.0.0, SVG Export Plug-In . SVG Version: 6.00 Build 0)  -->
<svg version="1.1" id="Capa_1" xmlns="http://www.w3.org/2000/svg" xmlns:xlink="http://www.w3.org/1999/xlink" x="0px" y="0px"
	 viewBox="0 0 480 480" style="enable-background:new 0 0 480 480;" xml:space="preserve">
<path style="fill:#884D00;" d="M375.779,132.364c-39.076-39.077-89.838-58.676-116.951-66.954
	c-11.36-3.468-23.657-0.438-32.056,7.961L55.779,244.364h336c17.673,0,32,14.327,32,32
	C423.779,276.364,431.779,188.364,375.779,132.364z"/>
<circle style="fill:#FF0000;" cx="239.779" cy="168" r="48"/>
<path style="fill:#A6001E;" d="M247.779,152h-16c0-85.156-44.859-136-120-136V0C195.67,0,247.779,58.242,247.779,152z"/>
<g>
	<rect x="55.779" y="392" style="fill:#CF9E76;" width="368" height="48"/>
	<path style="fill:#CF9E76;" d="M175.779,276.364h-48v24c0,8.836-7.164,16-16,16s-16-7.164-16-16v-24h-40v64h120V276.364z"/>
</g>
<path style="fill:#884D00;" d="M55.779,472h336c17.673,0,32-14.327,32-32h-368V472z"/>
<path style="fill:#D4C8B8;" d="M207.779,356.364c0,8.836-7.164,16-16,16s-16-7.164-16-16v-16h-120V392h368v-51.636h-216V356.364z"/>
<path style="fill:#693B00;" d="M391.779,244.364h-336v32h40v24c0,8.836,7.164,16,16,16s16-7.164,16-16v-24h48v64v16
	c0,8.836,7.164,16,16,16s16-7.164,16-16v-16v-32h16c8.836,0,16-7.164,16-16v-16h88v16c0,11.045,8.954,20,20,20s20-8.955,20-20v-16
	h56C423.779,258.691,409.453,244.364,391.779,244.364z"/>
<path style="fill:#CF9E76;" d="M367.779,292.364c0,11.045-8.954,20-20,20s-20-8.955-20-20v-16h-88v16c0,8.836-7.164,16-16,16h-16v32
	h216v-64h-56V292.364z"/>
<g>
	<path style="fill:#FFFFFF;" d="M367.889,209.313c-7.266-43.586-43.875-66.242-44.242-66.461l8.25-13.711
		c1.758,1.055,43.266,26.484,51.773,77.547L367.889,209.313z"/>
	
		<rect x="287.782" y="107.026" transform="matrix(-0.4472 0.8944 -0.8944 -0.4472 531.7847 -96.7235)" style="fill:#FFFFFF;" width="16" height="17.888"/>
</g>
<path d="M381.436,126.711c-40.383-40.383-92.688-60.531-120.273-68.945c-11.755-3.593-24.253-1.528-34.166,5.195
	C204.381,22.854,164.318,0,111.779,0v16c47.995,0,83.557,20.824,103.044,58.003L50.133,238.701c-1.453,1.448-2.354,3.45-2.354,5.667
	V472c0,4.422,3.578,8,8,8h336c22.055,0,40-17.945,40-40V276.719C432.351,269.822,438.283,183.559,381.436,126.711z M63.779,432v-32
	h352v32H63.779z M327.779,268.367h-88c-4.422,0-8,3.578-8,8v16c0,4.414-3.586,8-8,8h-16c-4.422,0-8,3.578-8,8v48
	c0,4.414-3.586,8-8,8s-8-3.586-8-8v-80c0-4.422-3.578-8-8-8h-48c-4.422,0-8,3.578-8,8v24c0,4.414-3.586,8-8,8s-8-3.586-8-8v-24
	c0-4.422-3.578-8-8-8h-32v-16h328c10.416,0,19.213,6.708,22.526,16h-46.526c-4.422,0-8,3.578-8,8v16c0,6.617-5.383,12-12,12
	s-12-5.383-12-12v-16C335.779,271.945,332.201,268.367,327.779,268.367z M63.779,284.367h24v16c0,13.234,10.766,24,24,24
	s24-10.766,24-24v-16h32v48h-104V284.367z M63.779,384v-35.633h104v8c0,13.234,10.766,24,24,24s24-10.766,24-24v-8h200V384H63.779z
	 M215.779,332.367v-16h8c13.234,0,24-10.766,24-24v-8h72v8c0,15.438,12.563,28,28,28s28-12.563,28-28v-8h40v48H215.779z
	 M231.779,152h16c0-8.077-0.525-15.786-1.286-23.321c18.853,3.217,33.286,19.566,33.286,39.321c0,22.055-17.945,40-40,40
	s-40-17.945-40-40c0-18.844,13.143-34.589,30.715-38.802C231.262,136.526,231.779,144.062,231.779,152z M228.142,113.234
	c-25.307,5.375-44.362,27.882-44.362,54.766c0,30.875,25.125,56,56,56s56-25.125,56-56c0-29.396-22.79-53.53-51.619-55.778
	c-2.297-12.437-5.648-24.029-10.103-34.62c6.194-5.171,14.592-6.928,22.433-4.54c26.156,7.984,75.703,27.039,113.633,64.961
	c32.301,32.301,42.177,76.482,44.98,105.99c-6.582-4.76-14.599-7.646-23.324-7.646H75.091L221.703,89.749
	C224.379,97.091,226.53,104.922,228.142,113.234z M391.779,464h-328v-16h350.526C410.992,457.292,402.195,464,391.779,464z"/>
<path style="fill:#FFFFFF;" d="M239.779,192v-16c-14.609,0-15.938-12.289-16-16.063l-8,0.063h-8
	C207.779,172.859,216.303,192,239.779,192z"/>
<g>
</g>
<g>
</g>
<g>
</g>
<g>
</g>
<g>
</g>
<g>
</g>
<g>
</g>
<g>
</g>
<g>
</g>
<g>
</g>
<g>
</g>
<g>
</g>
<g>
</g>
<g>
</g>
<g>
</g>
</svg>
