<svg id="filled_outline" height="512" viewBox="0 0 512 512" width="512" xmlns="http://www.w3.org/2000/svg" data-name="filled outline"><path d="m184 200 8-48-40-8-16 40-24 16v32h72z" fill="#de9400"/><path d="m248 192 24 16v80h-112l8-48z" fill="#de9400"/><path d="m143.752 230.599 48.248-38.599 32-48 40 24-32 56-61.629 30.815z" fill="#f6bb00"/><path d="m88 288-24-24 24-32 72 16v40z" fill="#de9400"/><path d="m171.2 278.4 12.8-38.4-56-24-32-32-32 24 40 48z" fill="#eda600"/><path d="m356.411 255.178 27.589-55.178-32-16-28.561 47.601z" fill="#de9400"/><path d="m360 248-48-40h-16v64h64z" fill="#eda600"/><path d="m304 248 16-64-40-8-16 56-40 48v40h80z" fill="#f6bb00"/><path d="m248 320 32-32h64v32z" fill="#eda600"/><path d="m290.667 320-66.667-40-48.659-9.732-47.341 49.732z" fill="#eda600"/><path d="m472 320-8-56-39.376-29.532-64.624 32.955v52.577z" fill="#de9400"/><path d="m328 269.333 56-37.333 24-40 32 16-16 48-53.333 32z" fill="#f6bb00"/><path d="m488 320a86.83274 86.83274 0 0 1 -77.66556 48h-308.66886a86.83274 86.83274 0 0 1 -77.66556-48z" fill="#e5e7e9"/><path d="m424 320v-40h-56l-80-40-24 40 80 40z" fill="#fac623"/><path d="m64 320v-32h64l48-24 16 24-48 32z" fill="#fac623"/><path d="m101.666 376h308.668a94.31563 94.31563 0 0 0 84.82129-52.42236 7.99928 7.99928 0 0 0 -7.15529-11.57764h-9.06128l-7.0188-49.13135a8.00317 8.00317 0 0 0 -3.12012-5.26855l-29.52-22.14 8.31-24.93029a8.00026 8.00026 0 0 0 -4.01172-9.68506l-32-16a8.00282 8.00282 0 0 0 -10.43847 3.03955l-12.82617 21.377 2.84179-5.68359a8.00033 8.00033 0 0 0 -3.57715-10.73291l-32-16a8.00438 8.00438 0 0 0 -10.43847 3.03906l-18.12761 30.21258-4.37817-3.64844 5.127-20.50757a8.00049 8.00049 0 0 0 -6.1914-9.78516l-40-8a7.99577 7.99577 0 0 0 -9.26172 5.647l-5.949 20.82226-6.05249-4.035 10.64014-18.62024a8.00025 8.00025 0 0 0 -2.83008-10.8291l-40-24a7.99808 7.99808 0 0 0 -10.77246 2.42236l-20.21313 30.31909 2.761-16.56616a8.00137 8.00137 0 0 0 -6.32226-9.16016l-40-8a7.99627 7.99627 0 0 0 -8.99707 4.87354l-15.07715 37.69287-16.47559 10.984-11.3623-11.36243a8 8 0 0 0 -10.457-.74316l-32 24a7.99876 7.99876 0 0 0 -1.34571 11.52148l18.05469 21.66577-18.30969 24.41281a8.00045 8.00045 0 0 0 .74316 10.45654l10.34323 10.34326h-4.686a8.00008 8.00008 0 0 0 -8 8v24h-32a7.99928 7.99928 0 0 0 -7.15527 11.57764 94.31563 94.31563 0 0 0 84.82127 52.42236zm354.88283-107.58838 6.2268 43.58838h-30.77563v-32a8.00008 8.00008 0 0 0 -8-8h-11.11743l15.23364-9.14014a8.00228 8.00228 0 0 0 3.47363-4.33007l2.35669-7.07007zm-260.11133 26.24463a7.99887 7.99887 0 0 0 2.21875-11.09375l-.36377-.54553 22.77979 4.55578 30.02539 18.01551-6.41166 6.41174h-74.26412zm85.14233 3.07788 28.5315 14.26587h-42.79733zm64.30884 14.26587-70.584-35.292 15.74414-26.23975 73.373 36.687a7.99934 7.99934 0 0 0 3.57819.84475h48v24zm44.97168-75.88428 20.18848-33.64746 19.168 9.58447-12.87015 38.60987-35.5625 21.3374h-11.89551l-17.981-8.99048 36.52979-24.35327a7.99616 7.99616 0 0 0 2.42289-2.54053zm-35.81152-41.64746 18.21777 9.10938-15.90478 31.8103-17.90967-14.92481zm-8.40112 52.81848-11.22217 7.48157-22.10816-11.054 5.00733-20.03016zm-60.98271-61.99524 24.53906 4.90772-11.54606 46.18542-7.07984-3.53991a8.00338 8.00338 0 0 0 -10.43847 3.03955l-24 40a8.001 8.001 0 0 0 3.28223 11.271l6.0725 3.03638-3.73461 3.73462-26.63428-15.98059 34.02-40.8241a8.0037 8.0037 0 0 0 1.54687-2.92383zm-23.92139 25.4856-4.97119 17.40015-35.8706 43.04443-35.16089-7.0321-.91407-1.371 2.63306-7.89941.11816.23608 48-24a8.00527 8.00527 0 0 0 3.36817-3.186l13.40283-23.45508zm-63.0874-14.3396 27.76855-41.65283 26.74415 16.0459-26.91309 47.09716-35.52482 17.76246a7.96111 7.96111 0 0 0 -3.57959-3.04322l-21.58814-9.252 31.43482-25.14795a7.98519 7.98519 0 0 0 1.65816-1.80952zm-58.21875-5.78125a7.99543 7.99543 0 0 0 2.99023-3.68506l13.52832-33.82129 25.87891 5.17578-5.91553 35.49341-28.03487 22.42791-16.31714-6.993-8.0105-8.01062zm-45.18846 3.90675 27.09375 27.09375a7.99989 7.99989 0 0 0 2.50586 1.69629l49.23439 21.10057-4.625 13.87305-13.272 6.636-47.49756-15.83228-33.15231-39.78272zm-20.68552 68.68651 11.87252-15.8302 11.41845 13.70227a7.99778 7.99778 0 0 0 3.61524 2.46778l34.47758 11.49264-9.83594 4.918h-34.79733zm-2.56348 32.75049h56a7.99934 7.99934 0 0 0 3.57812-.84473l41.68262-20.84127 7.64551 11.46729-39.32813 26.21871h-69.57812zm401.77539 32a78.33772 78.33772 0 0 1 -63.44139 32h-308.668a78.33772 78.33772 0 0 1 -63.44141-32z"/></svg>