<svg id="Capa_1" enable-background="new 0 0 510 510" height="512" viewBox="0 0 510 510" width="512" xmlns="http://www.w3.org/2000/svg" xmlns:xlink="http://www.w3.org/1999/xlink"><linearGradient id="lg1"><stop offset="0" stop-color="#464f00"/><stop offset=".2883" stop-color="#454518"/><stop offset=".7468" stop-color="#443738"/><stop offset="1" stop-color="#433244"/></linearGradient><linearGradient id="SVGID_1_" gradientUnits="userSpaceOnUse" x1="322.646" x2="389.286" xlink:href="#lg1" y1="94.378" y2="165.057"/><linearGradient id="lg2"><stop offset="0" stop-color="#f8f6fb"/><stop offset="1" stop-color="#efdcfb"/></linearGradient><linearGradient id="SVGID_2_" gradientUnits="userSpaceOnUse" x1="335.419" x2="370.622" xlink:href="#lg2" y1="16.815" y2="148.306"/><linearGradient id="lg3"><stop offset="0" stop-color="#ff6359"/><stop offset=".2243" stop-color="#fe5b50"/><stop offset=".5952" stop-color="#fc4637"/><stop offset="1" stop-color="#f82814"/></linearGradient><linearGradient id="SVGID_3_" gradientUnits="userSpaceOnUse" x1="355.152" x2="363.652" xlink:href="#lg3" y1="57.051" y2="76.051"/><linearGradient id="lg4"><stop offset="0" stop-color="#ffa936"/><stop offset=".4112" stop-color="#ff8548"/><stop offset=".7781" stop-color="#ff6c54"/><stop offset="1" stop-color="#ff6359"/></linearGradient><linearGradient id="SVGID_4_" gradientUnits="userSpaceOnUse" x1="386.587" x2="408.087" xlink:href="#lg4" y1="41.055" y2="66.555"/><linearGradient id="lg5"><stop offset="0" stop-color="#bada00"/><stop offset=".2269" stop-color="#b0ce00"/><stop offset=".6378" stop-color="#95ae00"/><stop offset="1" stop-color="#798c00"/></linearGradient><linearGradient id="SVGID_5_" gradientUnits="userSpaceOnUse" x1="334.258" x2="350.758" xlink:href="#lg5" y1="27.745" y2="55.245"/><linearGradient id="lg6"><stop offset="0" stop-color="#ffd945"/><stop offset=".3043" stop-color="#ffcd3e"/><stop offset=".8558" stop-color="#ffad2b"/><stop offset="1" stop-color="#ffa325"/></linearGradient><linearGradient id="SVGID_6_" gradientUnits="userSpaceOnUse" x1="293.601" x2="314.601" xlink:href="#lg6" y1="44.922" y2="71.922"/><linearGradient id="lg7"><stop offset="0" stop-color="#ffdecf"/><stop offset=".3791" stop-color="#fdc4b0"/><stop offset=".7655" stop-color="#fbae97"/><stop offset="1" stop-color="#faa68e"/></linearGradient><linearGradient id="SVGID_7_" gradientTransform="matrix(1 0 0 -1 0 123.024)" gradientUnits="userSpaceOnUse" x1="380.578" x2="406.708" xlink:href="#lg7" y1="53.834" y2="62.844"/><linearGradient id="lg8"><stop offset="0" stop-color="#efdcfb" stop-opacity="0"/><stop offset=".0287" stop-color="#e9d6f7" stop-opacity=".029"/><stop offset=".2203" stop-color="#c5b5de" stop-opacity=".22"/><stop offset=".4138" stop-color="#aa9bcb" stop-opacity=".414"/><stop offset=".6078" stop-color="#9688bd" stop-opacity=".608"/><stop offset=".8028" stop-color="#8a7db5" stop-opacity=".803"/><stop offset="1" stop-color="#8679b2"/></linearGradient><linearGradient id="SVGID_8_" gradientTransform="matrix(-.69 .724 -.724 -.69 929.945 -1618.897)" gradientUnits="userSpaceOnUse" x1="1686.308" x2="1700.852" xlink:href="#lg8" y1="-652.992" y2="-632.828"/><linearGradient id="SVGID_9_" gradientTransform="matrix(-.69 .724 -.724 -.69 929.945 -1618.897)" gradientUnits="userSpaceOnUse" x1="1696.283" x2="1707.765" xlink:href="#lg8" y1="-665.726" y2="-649.807"/><linearGradient id="SVGID_10_" gradientTransform="matrix(-.69 .724 -.724 -.69 929.945 -1618.897)" gradientUnits="userSpaceOnUse" x1="1679.51" x2="1686.432" xlink:href="#lg8" y1="-666.171" y2="-656.574"/><linearGradient id="SVGID_11_" gradientTransform="matrix(-.999 -.055 .055 -.999 2428.344 -1274.791)" gradientUnits="userSpaceOnUse" x1="1898.649" x2="1913.194" xlink:href="#lg8" y1="-1457.065" y2="-1436.901"/><linearGradient id="SVGID_12_" gradientTransform="matrix(-.999 -.055 .055 -.999 2428.344 -1274.791)" gradientUnits="userSpaceOnUse" x1="1908.624" x2="1920.106" xlink:href="#lg8" y1="-1469.799" y2="-1453.881"/><linearGradient id="SVGID_13_" gradientTransform="matrix(-.999 -.055 .055 -.999 2428.344 -1274.791)" gradientUnits="userSpaceOnUse" x1="1891.851" x2="1898.773" xlink:href="#lg8" y1="-1470.245" y2="-1460.648"/><linearGradient id="SVGID_14_" gradientTransform="matrix(-1 -.031 .031 -1 1755.21 -902.128)" gradientUnits="userSpaceOnUse" x1="1468.991" x2="1479.739" xlink:href="#lg8" y1="-986.315" y2="-971.415"/><linearGradient id="SVGID_15_" gradientTransform="matrix(-1 -.031 .031 -1 1755.21 -902.128)" gradientUnits="userSpaceOnUse" x1="1476.362" x2="1484.847" xlink:href="#lg8" y1="-995.724" y2="-983.962"/><linearGradient id="SVGID_16_" gradientTransform="matrix(-1 -.031 .031 -1 1755.21 -902.128)" gradientUnits="userSpaceOnUse" x1="1463.968" x2="1469.083" xlink:href="#lg8" y1="-996.054" y2="-988.962"/><linearGradient id="lg9"><stop offset=".001" stop-color="#433244" stop-opacity="0"/><stop offset=".4841" stop-color="#362637" stop-opacity=".484"/><stop offset="1" stop-color="#2d1e2e"/></linearGradient><linearGradient id="SVGID_17_" gradientUnits="userSpaceOnUse" x1="340.44" x2="222.9" xlink:href="#lg9" y1="250.568" y2="133.028"/><linearGradient id="SVGID_18_" gradientUnits="userSpaceOnUse" x1="120.286" x2="186.927" xlink:href="#lg1" y1="174.896" y2="245.575"/><linearGradient id="SVGID_19_" gradientUnits="userSpaceOnUse" x1="133.06" x2="168.262" xlink:href="#lg2" y1="97.333" y2="228.825"/><linearGradient id="SVGID_20_" gradientUnits="userSpaceOnUse" x1="140.54" x2="146.04" xlink:href="#lg3" y1="146.704" y2="165.204"/><linearGradient id="SVGID_21_" gradientUnits="userSpaceOnUse" x1="97.904" x2="113.404" xlink:href="#lg4" y1="127.198" y2="156.198"/><linearGradient id="SVGID_22_" gradientUnits="userSpaceOnUse" x1="153.849" x2="161.349" xlink:href="#lg5" y1="118.696" y2="134.696"/><linearGradient id="SVGID_23_" gradientUnits="userSpaceOnUse" x1="186.067" x2="203.067" xlink:href="#lg6" y1="125.134" y2="159.634"/><linearGradient id="SVGID_24_" gradientUnits="userSpaceOnUse" x1="92.256" x2="101.256" xlink:href="#lg7" y1="140.588" y2="157.088"/><linearGradient id="SVGID_25_" gradientTransform="matrix(-.69 .724 -.724 -.69 929.945 -1618.897)" gradientUnits="userSpaceOnUse" x1="1884.182" x2="1898.726" xlink:href="#lg8" y1="-562.005" y2="-541.841"/><linearGradient id="SVGID_26_" gradientTransform="matrix(-.69 .724 -.724 -.69 929.945 -1618.897)" gradientUnits="userSpaceOnUse" x1="1894.157" x2="1905.639" xlink:href="#lg8" y1="-574.74" y2="-558.821"/><linearGradient id="SVGID_27_" gradientTransform="matrix(-.69 .724 -.724 -.69 929.945 -1618.897)" gradientUnits="userSpaceOnUse" x1="1877.384" x2="1884.306" xlink:href="#lg8" y1="-575.185" y2="-565.588"/><linearGradient id="SVGID_28_" gradientTransform="matrix(-.999 -.055 .055 -.999 2428.344 -1274.791)" gradientUnits="userSpaceOnUse" x1="2096.266" x2="2110.811" xlink:href="#lg8" y1="-1548.608" y2="-1528.444"/><linearGradient id="SVGID_29_" gradientTransform="matrix(-.999 -.055 .055 -.999 2428.344 -1274.791)" gradientUnits="userSpaceOnUse" x1="2106.241" x2="2117.723" xlink:href="#lg8" y1="-1561.342" y2="-1545.424"/><linearGradient id="SVGID_30_" gradientTransform="matrix(-.999 -.055 .055 -.999 2428.344 -1274.791)" gradientUnits="userSpaceOnUse" x1="2089.468" x2="2096.391" xlink:href="#lg8" y1="-1561.788" y2="-1552.191"/><linearGradient id="SVGID_31_" gradientTransform="matrix(-1 -.031 .031 -1 1755.21 -902.128)" gradientUnits="userSpaceOnUse" x1="1668.732" x2="1679.48" xlink:href="#lg8" y1="-1073.126" y2="-1058.226"/><linearGradient id="SVGID_32_" gradientTransform="matrix(-1 -.031 .031 -1 1755.21 -902.128)" gradientUnits="userSpaceOnUse" x1="1676.103" x2="1684.588" xlink:href="#lg8" y1="-1082.535" y2="-1070.773"/><linearGradient id="SVGID_33_" gradientTransform="matrix(-1 -.031 .031 -1 1755.21 -902.128)" gradientUnits="userSpaceOnUse" x1="1663.709" x2="1668.824" xlink:href="#lg8" y1="-1082.865" y2="-1075.773"/><linearGradient id="SVGID_34_" gradientUnits="userSpaceOnUse" x1="340.893" x2="407.533" xlink:href="#lg1" y1="255.415" y2="326.094"/><linearGradient id="SVGID_35_" gradientUnits="userSpaceOnUse" x1="353.666" x2="388.868" xlink:href="#lg2" y1="177.851" y2="309.343"/><linearGradient id="SVGID_36_" gradientTransform="matrix(-1 0 0 1 730.606 0)" gradientUnits="userSpaceOnUse" x1="368.528" x2="370.081" xlink:href="#lg3" y1="195.37" y2="212.976"/><linearGradient id="SVGID_37_" gradientUnits="userSpaceOnUse" x1="311.664" x2="325.164" xlink:href="#lg4" y1="208.404" y2="239.404"/><linearGradient id="SVGID_38_" gradientUnits="userSpaceOnUse" x1="367.567" x2="378.067" xlink:href="#lg5" y1="217.876" y2="249.876"/><linearGradient id="SVGID_39_" gradientUnits="userSpaceOnUse" x1="409.212" x2="430.712" xlink:href="#lg6" y1="213.192" y2="244.192"/><linearGradient id="SVGID_40_" gradientUnits="userSpaceOnUse" x1="398.824" x2="424.955" xlink:href="#lg7" y1="201.887" y2="210.898"/><linearGradient id="SVGID_41_" gradientTransform="matrix(-.69 .724 -.724 -.69 929.945 -1618.897)" gradientUnits="userSpaceOnUse" x1="1790.324" x2="1804.869" xlink:href="#lg8" y1="-777.275" y2="-757.111"/><linearGradient id="SVGID_42_" gradientTransform="matrix(-.69 .724 -.724 -.69 929.945 -1618.897)" gradientUnits="userSpaceOnUse" x1="1800.299" x2="1811.781" xlink:href="#lg8" y1="-790.009" y2="-774.091"/><linearGradient id="SVGID_43_" gradientTransform="matrix(-.69 .724 -.724 -.69 929.945 -1618.897)" gradientUnits="userSpaceOnUse" x1="1783.526" x2="1790.449" xlink:href="#lg8" y1="-790.455" y2="-780.858"/><linearGradient id="SVGID_44_" gradientTransform="matrix(-.999 -.055 .055 -.999 2428.344 -1274.791)" gradientUnits="userSpaceOnUse" x1="1871.56" x2="1886.105" xlink:href="#lg8" y1="-1616.853" y2="-1596.689"/><linearGradient id="SVGID_45_" gradientTransform="matrix(-.999 -.055 .055 -.999 2428.344 -1274.791)" gradientUnits="userSpaceOnUse" x1="1881.535" x2="1893.017" xlink:href="#lg8" y1="-1629.587" y2="-1613.668"/><linearGradient id="SVGID_46_" gradientTransform="matrix(-.999 -.055 .055 -.999 2428.344 -1274.791)" gradientUnits="userSpaceOnUse" x1="1864.762" x2="1871.684" xlink:href="#lg8" y1="-1630.032" y2="-1620.435"/><linearGradient id="SVGID_47_" gradientTransform="matrix(-1 -.031 .031 -1 1755.21 -902.128)" gradientUnits="userSpaceOnUse" x1="1445.715" x2="1456.462" xlink:href="#lg8" y1="-1146.702" y2="-1131.802"/><linearGradient id="SVGID_48_" gradientTransform="matrix(-1 -.031 .031 -1 1755.21 -902.128)" gradientUnits="userSpaceOnUse" x1="1453.085" x2="1461.57" xlink:href="#lg8" y1="-1156.112" y2="-1144.349"/><linearGradient id="SVGID_49_" gradientTransform="matrix(-1 -.031 .031 -1 1755.21 -902.128)" gradientUnits="userSpaceOnUse" x1="1440.691" x2="1445.807" xlink:href="#lg8" y1="-1156.441" y2="-1149.349"/><linearGradient id="SVGID_50_" gradientUnits="userSpaceOnUse" x1="385.327" x2="281.467" xlink:href="#lg9" y1="450.848" y2="346.988"/><linearGradient id="SVGID_51_" gradientUnits="userSpaceOnUse" x1="150.283" x2="216.923" xlink:href="#lg1" y1="372.895" y2="443.574"/><linearGradient id="SVGID_52_" gradientUnits="userSpaceOnUse" x1="163.056" x2="198.258" xlink:href="#lg2" y1="295.332" y2="426.823"/><linearGradient id="SVGID_53_" gradientUnits="userSpaceOnUse" x1="177.864" x2="179.411" xlink:href="#lg3" y1="312.837" y2="330.366"/><linearGradient id="SVGID_54_" gradientUnits="userSpaceOnUse" x1="219.107" x2="224.801" xlink:href="#lg4" y1="328.983" y2="354.349"/><linearGradient id="SVGID_55_" gradientUnits="userSpaceOnUse" x1="159.689" x2="177.29" xlink:href="#lg5" y1="339.299" y2="372.948"/><linearGradient id="SVGID_56_" gradientUnits="userSpaceOnUse" x1="128.008" x2="145.206" xlink:href="#lg6" y1="332.566" y2="359.914"/><linearGradient id="SVGID_57_" gradientUnits="userSpaceOnUse" x1="208.214" x2="234.345" xlink:href="#lg7" y1="319.367" y2="328.378"/><linearGradient id="SVGID_58_" gradientTransform="matrix(-.69 .724 -.724 -.69 929.945 -1618.897)" gradientUnits="userSpaceOnUse" x1="2006.857" x2="2021.402" xlink:href="#lg8" y1="-720.29" y2="-700.126"/><linearGradient id="SVGID_59_" gradientTransform="matrix(-.69 .724 -.724 -.69 929.945 -1618.897)" gradientUnits="userSpaceOnUse" x1="2016.832" x2="2028.314" xlink:href="#lg8" y1="-733.024" y2="-717.106"/><linearGradient id="SVGID_60_" gradientTransform="matrix(-.69 .724 -.724 -.69 929.945 -1618.897)" gradientUnits="userSpaceOnUse" x1="2000.059" x2="2006.981" xlink:href="#lg8" y1="-733.47" y2="-723.872"/><linearGradient id="SVGID_61_" gradientTransform="matrix(-.999 -.055 .055 -.999 2428.344 -1274.791)" gradientUnits="userSpaceOnUse" x1="2055.409" x2="2069.954" xlink:href="#lg8" y1="-1744.654" y2="-1724.49"/><linearGradient id="SVGID_62_" gradientTransform="matrix(-.999 -.055 .055 -.999 2428.344 -1274.791)" gradientUnits="userSpaceOnUse" x1="2065.384" x2="2076.867" xlink:href="#lg8" y1="-1757.388" y2="-1741.469"/><linearGradient id="SVGID_63_" gradientTransform="matrix(-.999 -.055 .055 -.999 2428.344 -1274.791)" gradientUnits="userSpaceOnUse" x1="2048.611" x2="2055.534" xlink:href="#lg8" y1="-1757.833" y2="-1748.236"/><linearGradient id="SVGID_64_" gradientTransform="matrix(-1 -.031 .031 -1 1755.21 -902.128)" gradientUnits="userSpaceOnUse" x1="1632.555" x2="1643.303" xlink:href="#lg8" y1="-1270.089" y2="-1255.189"/><linearGradient id="SVGID_65_" gradientTransform="matrix(-1 -.031 .031 -1 1755.21 -902.128)" gradientUnits="userSpaceOnUse" x1="1639.926" x2="1648.411" xlink:href="#lg8" y1="-1279.498" y2="-1267.736"/><linearGradient id="SVGID_66_" gradientTransform="matrix(-1 -.031 .031 -1 1755.21 -902.128)" gradientUnits="userSpaceOnUse" x1="1627.532" x2="1632.647" xlink:href="#lg8" y1="-1279.828" y2="-1272.736"/><g><g><path d="m491.753 60.283h-289.393v110.917c0 65.277 289.394 65.277 289.394 0v-110.917z" fill="url(#SVGID_1_)"/><path d="m491.753 60.283c0 65.277-289.394 65.277-289.394 0s289.394-65.277 289.394 0z" fill="url(#SVGID_2_)"/><path d="m431.229 55.02c0-10.609-19.773-17.582-45.766-20.919-49.85-6.4-107.14.573-107.14 20.919 0 11.407 7.422 18.611 36.295 21.611 49.478 5.141 116.611-2.063 116.611-21.611z" fill="url(#SVGID_3_)"/><path d="m393.121 74.817c-20.282-4.848-35.02-19.477-35.02-36.773 0-2.056.213-4.072.614-6.041 37.861 1.301 72.514 8.973 72.514 23.017 0 9.539-15.989 16.137-38.108 19.797z" fill="url(#SVGID_4_)"/><path d="m385.923 34.162c-3.614 13.096-23.474 23.112-47.438 23.112-22.241 0-40.944-8.629-46.408-20.34 25.86-5.738 64.022-6.662 93.846-2.772z" fill="url(#SVGID_5_)"/><path d="m262.885 55.02c0-11.093 21.62-18.21 49.364-21.352 12.291-1.392 23.682 7.605 24.416 19.953.026.439.039.88.039 1.323 0 2.239-.336 4.419-.972 6.516-3.02 9.954-13.047 16.089-23.382 14.922-27.793-3.135-49.465-10.255-49.465-21.362z" fill="url(#SVGID_6_)"/><path d="m371.951 66.148c4.895-9.89 16.881-13.939 26.771-9.044l20.979 10.384c-9.475 4.415-23.98 7.47-40.418 9.165-5.734.59-9.889-5.338-7.332-10.505z" fill="url(#SVGID_7_)"/><g opacity=".6"><g opacity=".6"><g><circle cx="231.739" cy="51.406" fill="url(#SVGID_8_)" r="5.253"/><circle cx="235.747" cy="67.64" fill="url(#SVGID_9_)" r="4.147"/><circle cx="250.123" cy="56.143" fill="url(#SVGID_10_)" r="2.5"/></g><g><circle cx="448.005" cy="68.746" fill="url(#SVGID_11_)" r="5.253"/><circle cx="438.252" cy="82.329" fill="url(#SVGID_12_)" r="4.147"/><circle cx="456.328" cy="85.809" fill="url(#SVGID_13_)" r="2.5"/></g><g><circle cx="252.771" cy="32.839" fill="url(#SVGID_14_)" r="3.881"/><circle cx="245.805" cy="43.045" fill="url(#SVGID_15_)" r="3.064"/><circle cx="259.219" cy="45.298" fill="url(#SVGID_16_)" r="1.847"/></g></g></g></g><path d="m377.16 219.203-94.009-94.009c-12.754-14.893-43.761-24.796-80.79-29.712v75.719c-.001 37.194 93.957 53.194 174.799 48.002z" fill="url(#SVGID_17_)"/><g><path d="m289.394 140.801h-289.394v110.917c0 65.277 289.394 65.277 289.394 0z" fill="url(#SVGID_18_)"/><path d="m289.394 140.801c0 65.277-289.394 65.277-289.394 0s289.394-65.276 289.394 0z" fill="url(#SVGID_19_)"/><path d="m60.525 135.539c0-10.589 19.699-17.556 45.62-20.9 49.854-6.433 107.683.534 107.683 20.9 0 11.215-7.055 18.367-35.237 21.455-49.606 5.437-118.066-1.715-118.066-21.455z" fill="url(#SVGID_20_)"/><path d="m98.633 155.336c20.282-4.848 35.02-19.477 35.02-36.773 0-2.056-.213-4.072-.614-6.041-37.861 1.301-72.514 8.973-72.514 23.017 0 9.538 15.988 16.137 38.108 19.797z" fill="url(#SVGID_21_)"/><path d="m105.83 114.681c3.614 13.096 23.474 23.112 47.438 23.112 22.241 0 40.944-8.629 46.408-20.34-25.859-5.739-64.022-6.662-93.846-2.772z" fill="url(#SVGID_22_)"/><path d="m228.869 135.539c0-11.093-21.62-18.21-49.364-21.352-12.291-1.392-23.682 7.605-24.416 19.953-.026.439-.039.88-.039 1.323 0 2.239.336 4.419.972 6.516 3.02 9.954 13.047 16.089 23.382 14.922 27.793-3.136 49.465-10.256 49.465-21.362z" fill="url(#SVGID_23_)"/><path d="m119.802 146.666c-4.895-9.89-16.881-13.939-26.771-9.044l-20.979 10.384c9.475 4.415 23.98 7.47 40.418 9.165 5.734.59 9.89-5.338 7.332-10.505z" fill="url(#SVGID_24_)"/><g opacity=".6"><g opacity=".6"><g><circle cx="29.379" cy="131.924" fill="url(#SVGID_25_)" r="5.253"/><circle cx="33.388" cy="148.158" fill="url(#SVGID_26_)" r="4.147"/><circle cx="47.763" cy="136.661" fill="url(#SVGID_27_)" r="2.5"/></g><g><circle cx="245.645" cy="149.265" fill="url(#SVGID_28_)" r="5.253"/><circle cx="235.893" cy="162.848" fill="url(#SVGID_29_)" r="4.147"/><circle cx="253.968" cy="166.327" fill="url(#SVGID_30_)" r="2.5"/></g><g><circle cx="50.411" cy="113.358" fill="url(#SVGID_31_)" r="3.881"/><circle cx="43.445" cy="123.564" fill="url(#SVGID_32_)" r="3.064"/><circle cx="56.859" cy="125.816" fill="url(#SVGID_33_)" r="1.847"/></g></g></g></g><g><path d="m510 221.32h-289.394v110.917c0 65.277 289.394 65.277 289.394 0z" fill="url(#SVGID_34_)"/><path d="m510 221.32c0 65.277-289.394 65.277-289.394 0s289.394-65.277 289.394 0z" fill="url(#SVGID_35_)"/><path d="m281.131 216.057c0 10.6 19.741 17.571 45.703 20.911 49.852 6.414 112.536-.556 112.536-20.911 0-11.532-13.26-18.768-42.581-21.708-49.382-4.951-115.658 2.285-115.658 21.708z" fill="url(#SVGID_36_)"/><path d="m319.239 196.26c20.282 4.848 35.02 19.477 35.02 36.773 0 2.056-.213 4.072-.614 6.041-37.861-1.301-72.514-8.973-72.514-23.017 0-9.539 15.989-16.137 38.108-19.797z" fill="url(#SVGID_37_)"/><path d="m326.436 236.915c3.614-13.096 23.474-23.112 47.438-23.112 22.241 0 40.944 8.629 46.408 20.34-25.859 5.738-64.022 6.662-93.846 2.772z" fill="url(#SVGID_38_)"/><path d="m449.475 216.057c0 11.093-21.62 18.21-49.364 21.352-12.291 1.392-23.682-7.605-24.416-19.953-.026-.439-.039-.88-.039-1.323 0-2.239.336-4.419.972-6.516 3.02-9.954 13.047-16.089 23.382-14.922 27.793 3.135 49.465 10.256 49.465 21.362z" fill="url(#SVGID_39_)"/><path d="m390.198 204.929c4.895 9.89 16.881 13.939 26.771 9.044l20.98-10.384c-9.475-4.415-23.98-7.47-40.418-9.165-5.735-.59-9.89 5.339-7.333 10.505z" fill="url(#SVGID_40_)"/><g opacity=".6"><g opacity=".6"><g><circle cx="249.985" cy="212.443" fill="url(#SVGID_41_)" r="5.253"/><circle cx="253.994" cy="228.677" fill="url(#SVGID_42_)" r="4.147"/><circle cx="268.369" cy="217.18" fill="url(#SVGID_43_)" r="2.5"/></g><g><circle cx="466.252" cy="229.783" fill="url(#SVGID_44_)" r="5.253"/><circle cx="456.499" cy="243.366" fill="url(#SVGID_45_)" r="4.147"/><circle cx="474.574" cy="246.846" fill="url(#SVGID_46_)" r="2.5"/></g><g><circle cx="271.017" cy="193.876" fill="url(#SVGID_47_)" r="3.881"/><circle cx="264.051" cy="204.082" fill="url(#SVGID_48_)" r="3.064"/><circle cx="277.465" cy="206.334" fill="url(#SVGID_49_)" r="1.847"/></g></g></g></g><path d="m220.606 292.104v40.133c0 33.529 76.353 49.834 150.622 48.919l-58.977-58.977c-14.685-15.859-50.388-25.882-91.645-30.075z" fill="url(#SVGID_50_)"/><g><path d="m319.39 338.8h-289.394v110.917c0 65.277 289.394 65.277 289.394 0z" fill="url(#SVGID_51_)"/><path d="m319.39 338.8c0 65.277-289.394 65.277-289.394 0s289.394-65.277 289.394 0z" fill="url(#SVGID_52_)"/><path d="m258.865 333.537c0 10.595-19.72 17.563-45.661 20.906-49.957 3.133-112.683-.545-112.683-20.906 0-11.371 12.718-18.566 41.462-21.582 20.407-2.142 43.853-2.178 64.363-.109 7.077.714 12.796 3.28 18.93 4.495 8.342 1.653 16.592 2.169 22.115 4.75 7.195 3.362 11.474 7.511 11.474 12.446z" fill="url(#SVGID_53_)"/><path d="m220.757 313.74c-20.282 4.848-35.02 19.477-35.02 36.773 0 2.056.213 4.072.614 6.04 37.861-1.301 72.514-8.973 72.514-23.017 0-9.538-15.988-16.136-38.108-19.796z" fill="url(#SVGID_54_)"/><path d="m213.56 354.395c-3.614-13.096-23.474-23.112-47.438-23.112-22.241 0-40.944 8.629-46.408 20.34 25.859 5.738 64.022 6.662 93.846 2.772z" fill="url(#SVGID_55_)"/><path d="m90.521 333.537c0 11.093 21.62 18.21 49.364 21.352 12.291 1.392 23.682-7.605 24.416-19.953.026-.439.039-.88.039-1.323 0-2.239-.336-4.419-.972-6.516-3.02-9.954-13.047-16.089-23.382-14.922-27.793 3.135-49.465 10.256-49.465 21.362z" fill="url(#SVGID_56_)"/><path d="m199.588 322.41c4.895 9.89 16.881 13.939 26.771 9.044l20.979-10.384c-9.475-4.415-23.98-7.47-40.418-9.165-5.734-.591-9.89 5.338-7.332 10.505z" fill="url(#SVGID_57_)"/><g opacity=".6"><g opacity=".6"><g><circle cx="59.375" cy="329.923" fill="url(#SVGID_58_)" r="5.253"/><circle cx="63.384" cy="346.157" fill="url(#SVGID_59_)" r="4.147"/><circle cx="77.759" cy="334.66" fill="url(#SVGID_60_)" r="2.5"/></g><g><circle cx="275.642" cy="347.263" fill="url(#SVGID_61_)" r="5.253"/><circle cx="265.889" cy="360.846" fill="url(#SVGID_62_)" r="4.147"/><circle cx="283.964" cy="364.326" fill="url(#SVGID_63_)" r="2.5"/></g><g><circle cx="80.407" cy="311.356" fill="url(#SVGID_64_)" r="3.881"/><circle cx="73.441" cy="321.562" fill="url(#SVGID_65_)" r="3.064"/><circle cx="86.855" cy="323.815" fill="url(#SVGID_66_)" r="1.847"/></g></g></g></g></g></svg>