<?xml version="1.0" encoding="iso-8859-1"?>
<!-- Generator: Adobe Illustrator 19.0.0, SVG Export Plug-In . SVG Version: 6.00 Build 0)  -->
<svg version="1.1" id="Capa_1" xmlns="http://www.w3.org/2000/svg" xmlns:xlink="http://www.w3.org/1999/xlink" x="0px" y="0px"
	 viewBox="0 0 512.001 512.001" style="enable-background:new 0 0 512.001 512.001;" xml:space="preserve">
<path style="fill:#EBC9A0;" d="M240.533,94.863v58.242c0,5.361-4.328,9.707-9.667,9.707H124.533c-5.339,0-9.667-4.346-9.667-9.707
	V94.863c0-5.361,4.328-9.707,9.667-9.707h106.333C236.206,85.156,240.533,89.502,240.533,94.863z M230.867,163.298H124.533
	c-5.339,0-9.667,4.346-9.667,9.707l0,0c0,5.361,4.328,9.707,9.667,9.707h106.333c5.339,0,9.667-4.346,9.667-9.707l0,0
	C240.533,167.644,236.206,163.298,230.867,163.298z"/>
<path style="fill:#57676E;" d="M187.682,397.498c8.712,7.988,14.185,19.478,14.185,32.258c0,24.155-19.525,43.731-43.59,43.682
	c-22.766-0.047-41.929-18.109-43.325-40.927c-0.849-13.877,4.766-26.454,14.099-35.012c0.357-0.327,0.827-0.504,1.31-0.504h56.013
	C186.856,396.995,187.326,397.171,187.682,397.498z"/>
<path style="fill:#FFC850;" d="M219.305,425.412c5.412,5.063,8.8,12.277,8.8,20.291c0,15.914-13.348,28.697-29.414,27.677
	c-14.034-0.891-25.311-12.563-25.806-26.675c-0.296-8.413,3.146-16.02,8.782-21.293c0.356-0.333,0.83-0.51,1.317-0.51h35.005
	C218.474,424.902,218.949,425.08,219.305,425.412z"/>
<path style="fill:#A2DAF9;" d="M385.533,289.004L385.533,289.004c0,16.083-12.984,29.121-29,29.121s-29-13.038-29-29.121l0,0
	c0-10.777,5.834-20.18,14.5-25.215v-33.027h29v33.027C379.699,268.824,385.533,278.227,385.533,289.004z"/>
<path style="fill:#F7A676;" d="M172.867,235.615v87.363c0,2.681-2.164,4.854-4.833,4.854H148.7c-2.669,0-4.833-2.173-4.833-4.854
	c0,2.681-2.164,4.854-4.833,4.854H119.7c-2.669,0-4.833-2.173-4.833-4.854v-87.363c0-2.681,2.164-4.854,4.833-4.854h19.333
	c2.669,0,4.833,2.173,4.833,4.854c0-2.681,2.164-4.854,4.833-4.854h19.333C170.703,230.762,172.867,232.935,172.867,235.615z"/>
<path style="fill:#924A36;" d="M143.867,235.762v87.07c0,2.761-2.239,5-5,5h-19c-2.761,0-5-2.239-5-5v-87.07c0-2.761,2.239-5,5-5h19
	C141.628,230.762,143.867,233,143.867,235.762z"/>
<path style="fill:#D3754F;" d="M468.667,7.5h-26.342h-2.658H72.333h-2.658H43.333c-2.669,0-4.833,2.173-4.833,4.854v487.293
	c0,2.681,2.164,4.854,4.833,4.854h26.342h2.658h367.333h2.658h26.342c2.669,0,4.833-2.173,4.833-4.854V12.354
	C473.5,9.673,471.336,7.5,468.667,7.5z M77.167,201.641H212.5v112.602H77.167V201.641z M434.833,314.242H251.167V201.641h183.667
	v112.601H434.833z M434.833,46.328v116.484H77.167V46.328H434.833z M77.167,353.07h183.667v112.602H77.167V353.07z M299.5,465.672
	V353.07h135.333v112.602H299.5z"/>
<path style="fill:#924A36;" d="M473.5,12.354v487.293c0,2.681-2.164,4.854-4.833,4.854H430c2.669,0,4.833-2.173,4.833-4.854V12.354
	c0-2.681-2.164-4.854-4.833-4.854h38.667C471.336,7.5,473.5,9.673,473.5,12.354z"/>
<path d="M209.366,114.277c0,4.143-3.357,7.5-7.5,7.5h-48.333c-4.143,0-7.5-3.357-7.5-7.5s3.357-7.5,7.5-7.5h48.333
	C206.009,106.777,209.366,110.135,209.366,114.277z M481,12.354v487.293c0,6.812-5.532,12.354-12.333,12.354H43.333
	C36.532,512,31,506.458,31,499.646V12.354C31,5.542,36.532,0,43.333,0h425.334C475.468,0,481,5.542,481,12.354z M466,15H46v482h420
	V15z M69.667,314.242V209.141h-7c-4.143,0-7.5-3.357-7.5-7.5s3.357-7.5,7.5-7.5h14.5h130.497h4.836h13.53c4.143,0,7.5,3.357,7.5,7.5
	s-3.357,7.5-7.5,7.5H220v105.102c0,4.143-3.357,7.5-7.5,7.5H77.167C73.024,321.742,69.667,318.385,69.667,314.242z M165.366,238.262
	h-14v68.48h14V238.262z M136.366,238.262h-14v68.48h14V238.262z M205,209.141H84.667v97.602h22.699v-71.127
	c0-6.812,5.533-12.354,12.334-12.354h19.333c1.715,0,3.348,0.354,4.833,0.99c1.485-0.636,3.119-0.99,4.833-0.99h19.333
	c6.801,0,12.333,5.542,12.333,12.354v71.127H205V209.141z M274.122,360.57h-5.789v105.102c0,4.143-3.357,7.5-7.5,7.5H77.167
	c-4.143,0-7.5-3.357-7.5-7.5V360.57h-7c-4.143,0-7.5-3.357-7.5-7.5s3.357-7.5,7.5-7.5h14.5h178.83h4.836h13.289
	c4.143,0,7.5,3.357,7.5,7.5S278.266,360.57,274.122,360.57z M136.083,458.172h31.563c-1.491-3.956-2.28-8.178-2.28-12.469
	c0-10.095,4.333-19.723,11.889-26.415c1.371-1.215,3.141-1.886,4.973-1.886h9.953c-1.744-4.797-4.477-9.218-8.057-12.908h-51.516
	c-6.54,6.738-10.242,15.801-10.242,25.262C122.366,440.908,127.366,451.255,136.083,458.172z M220.604,445.703
	c0-4.913-1.784-9.634-4.967-13.301h-30.304c-3.183,3.667-4.968,8.388-4.968,13.301c0,4.532,1.531,8.92,4.297,12.469h31.647
	C219.074,454.627,220.604,450.23,220.604,445.703z M253.333,360.57H84.667v97.602h31.275c-5.538-8.299-8.575-18.11-8.575-28.416
	c0-14.666,6.295-28.653,17.27-38.376c1.372-1.215,3.142-1.886,4.974-1.886h57.515c1.833,0,3.602,0.671,4.974,1.886
	c7.773,6.887,13.275,16.02,15.76,26.022h10.887c1.832,0,3.602,0.671,4.973,1.886c7.555,6.691,11.888,16.319,11.888,26.415
	c0,4.287-0.791,8.51-2.283,12.469h20.011V360.57H253.333z M54.522,46.328c0-4.143,3.357-7.5,7.5-7.5h15.145h52.199
	c4.143,0,7.5,3.357,7.5,7.5s-3.357,7.5-7.5,7.5H84.667v101.484h22.857c-0.093-0.724-0.157-1.458-0.157-2.207V94.863
	c0-9.488,7.701-17.207,17.167-17.207h106.333c9.466,0,17.167,7.719,17.167,17.207v58.242c0,0.75-0.064,1.483-0.157,2.207h179.457
	V53.828h-268c-4.143,0-7.5-3.357-7.5-7.5s3.357-7.5,7.5-7.5h275.499c4.143,0,7.5,3.357,7.5,7.5v108.984h7.322
	c4.143,0,7.5,3.357,7.5,7.5s-3.357,7.5-7.5,7.5h-14.822H77.167c-4.143,0-7.5-3.357-7.5-7.5V53.828h-7.645
	C57.88,53.828,54.522,50.471,54.522,46.328z M124.533,155.313h106.333c1.195,0,2.167-0.99,2.167-2.207V94.863
	c0-1.217-0.972-2.207-2.167-2.207H124.533c-1.195,0-2.167,0.99-2.167,2.207v58.242C122.366,154.322,123.338,155.313,124.533,155.313
	z M448.365,458.172h-6.032V353.07c0-4.143-3.357-7.5-7.5-7.5H299.5c-4.143,0-7.5,3.357-7.5,7.5v105.103h-6.033
	c-4.143,0-7.5,3.357-7.5,7.5s3.357,7.5,7.5,7.5h14.983c0.007,0,0.013-0.001,0.019-0.001h68.856c4.143,0,7.5-3.357,7.5-7.5
	s-3.357-7.5-7.5-7.5H307V360.57h120.333v97.602H399.55c-4.143,0-7.5,3.357-7.5,7.5s3.357,7.5,7.5,7.5h32.382h2.901h13.532
	c4.143,0,7.5-3.357,7.5-7.5S452.508,458.172,448.365,458.172z M457.559,314.08c0,4.143-3.357,7.5-7.5,7.5
	c0,0-14.694,0.162-15.226,0.162H255.114c-0.026,0-0.051,0.004-0.077,0.004h-19.333c-4.143,0-7.5-3.357-7.5-7.5s3.357-7.5,7.5-7.5
	h7.964V201.641c0-4.143,3.357-7.5,7.5-7.5h183.666c4.143,0,7.5,3.357,7.5,7.5V306.58h7.726
	C454.201,306.58,457.559,309.938,457.559,314.08z M258.667,306.742h65.937c-2.962-5.362-4.57-11.441-4.57-17.738
	c0-11.511,5.461-22.339,14.5-29.211v-22.028c-2.824-1.076-4.833-3.801-4.833-7.003c0-4.143,3.357-7.5,7.5-7.5h38.666
	c4.143,0,7.5,3.357,7.5,7.5c0,3.202-2.009,5.927-4.833,7.003v22.028c9.038,6.871,14.5,17.701,14.5,29.211
	c0,6.243-1.616,12.352-4.584,17.738h38.884V209.14H258.667V306.742z M343.868,306.742h25.872c0.375-0.707,0.865-1.368,1.48-1.947
	c4.394-4.135,6.813-9.743,6.813-15.791c0-7.694-4.126-14.871-10.769-18.731c-2.31-1.343-3.731-3.813-3.731-6.484v-25.526h-14v25.526
	c0,2.672-1.421,5.142-3.731,6.484c-6.643,3.86-10.769,11.038-10.769,18.731c0,6.441,2.828,12.503,7.758,16.63
	C343.195,305.972,343.554,306.344,343.868,306.742z"/>
<g>
</g>
<g>
</g>
<g>
</g>
<g>
</g>
<g>
</g>
<g>
</g>
<g>
</g>
<g>
</g>
<g>
</g>
<g>
</g>
<g>
</g>
<g>
</g>
<g>
</g>
<g>
</g>
<g>
</g>
</svg>
