<svg id="svg" xmlns="http://www.w3.org/2000/svg" width="1080" height="1080" viewBox="0 0 1080 1080">
  <defs>
    <style>
      .cls-1 {
        fill: #01dff5;
      }

      .cls-2 {
        fill: #00c5d9;
        fill-rule: evenodd;
      }
    </style>
  </defs>
  <rect id="_160_base_negra" data-name="160 base negra" width="1080" height="1080" rx="160" ry="160"/>
  <circle id="Elipse_1" data-name="Elipse 1" class="cls-1" cx="540" cy="540" r="364.75"/>
  <path id="Elipse_1_copia" data-name="Elipse 1 copia" class="cls-2" d="M847.8,735.791C783.051,837.374,669.394,904.75,540,904.75c-201.446,0-364.75-163.3-364.75-364.75,0-121.686,59.588-229.454,151.177-295.717C118.263,705.467,635.488,923.963,847.8,735.791Z"/>
  <path id="Elipse_2" data-name="Elipse 2" class="cls-2" d="M491.063,360.656A129.516,129.516,0,1,1,361.5,490.172,129.539,129.539,0,0,1,491.063,360.656Zm231.546-36.343a51.516,51.516,0,1,1-51.515,51.515A51.515,51.515,0,0,1,722.609,324.313ZM710.781,574.219a52.438,52.438,0,1,1-52.437,52.437A52.437,52.437,0,0,1,710.781,574.219ZM490.891,720.188a77.75,77.75,0,1,1-77.735,77.75A77.742,77.742,0,0,1,490.891,720.188Zm207.3,33.562A12.547,12.547,0,1,1,685.656,766.3,12.539,12.539,0,0,1,698.188,753.75ZM529.594,232.684a26.457,26.457,0,1,1-26.468,26.457A26.462,26.462,0,0,1,529.594,232.684Zm128.859,11.129a12.766,12.766,0,1,1-12.765,12.765A12.766,12.766,0,0,1,658.453,243.813ZM836.359,462.947a13.222,13.222,0,1,1-13.222,13.222A13.222,13.222,0,0,1,836.359,462.947ZM380.2,256.563a18.969,18.969,0,1,1-18.953,18.968A18.96,18.96,0,0,1,380.2,256.563Z"/>
</svg>
